<svg xmlns="http://www.w3.org/2000/svg" xmlns:xlink="http://www.w3.org/1999/xlink" width="137.095" height="58.997" viewBox="0 0 137.095 58.997">
  <defs>
    <filter id="Path_35" x="0" y="0" width="137.095" height="58.997" filterUnits="userSpaceOnUse">
      <feOffset dy="1" input="SourceAlpha"/>
      <feGaussianBlur stdDeviation="3.5" result="blur"/>
      <feFlood flood-opacity="0.306"/>
      <feComposite operator="in" in2="blur"/>
      <feComposite in="SourceGraphic"/>
    </filter>
  </defs>
  <g transform="matrix(1, 0, 0, 1, 0, 0)" filter="url(#Path_35)">
    <path id="Path_35-2" data-name="Path 35" d="M451.895,121.987a6.231,6.231,0,0,1,.989-.929,3.155,3.155,0,0,0,.538-.486.44.44,0,0,0-.088-.416c-.238-.247-.886-.3-1.817-.147-.06.013-6.5,1.135-9.537,1.346-.454.02-.684.27-.711.509-.025.2.1.473.525.6.839.254,7.352-.375,7.451-.316-.057.094-3.347,4.347-3.492,4.533-3.294,2.383-10.307,5.9-15.122,5.193a4.027,4.027,0,0,1-3.478-3.893c0-3.587,2.354-7.27,3.361-8.85a45.945,45.945,0,0,1,9.061-9.616c6.84-5.131,12.5-7.84,17.831-8.518,1.735-.217,3.159.021,3.638.6a.791.791,0,0,1,.119.8c-.1.309-.079.526.077.644.34.266,1.2,0,1.473-.181l.007-.006a1.369,1.369,0,0,0,.782-1.271,2.068,2.068,0,0,0-.854-1.447c-1.185-.9-3.362-1.108-6.126-.6-5.488,1.007-12.2,4.369-18.432,9.217-9.306,7.251-15.487,15.963-14.7,20.711.488,2.988,2.4,4.583,6.023,5.027,6.433.78,11.781-3.218,14.068-4.923l.522-.289-.486.707c-2.012,2.521-2.768,3.8-2.532,4.287.069.156.255.234.552.234,1.033,0,2.305-.512,2.589-1.334a43.083,43.083,0,0,1,2.941-4.363l2.515-3.621Zm18.648,2.519c.684-.979.939-1.709.776-2.167a.743.743,0,0,0-.526-.458c-.826-.237-2.126-.078-5.519,2.873-1.866,1.632-5.663,6.075-5.746,7.622a.364.364,0,0,0,.121.415l0-.009.239.061c1.436-.1,8.793-5.675,10.658-8.336m23.5,9.507c.091.173-.02.449-.344.8-1.913,2.009-3.607,2.843-4.648,2.285a2.666,2.666,0,0,1-1.152-2.937c.291-1.951,2.912-6.217,4.318-8.5.834-1.349.879-1.445.839-1.491-.44.131-5.739,5.589-8.055,8.525a1.454,1.454,0,0,1-1.266.681c-.464-.065-.88-.491-1.194-1.208-.332-.8,1.211-3.6,2.329-5.654.795-1.436,1.205-2.2,1.131-2.38-.533-.2-6.359,5.485-7.991,8.631-.213.416-.456.663-.7.721a.842.842,0,0,1-.669-.2c-.886-.622-1.265-1.1-1.1-1.393l.221-.385c2.49-4.242,3.482-6.221,3.23-6.429-.08-.067-.223,0-.458.217L477,126.844c-2.447,2.571-6.537,6.874-8.874,6.925a1.364,1.364,0,0,1-1.006-.367c-.967-.935.428-3.847,1.046-4.89.091-.16.234-.43.14-.508-.049-.044-.142-.011-.309.118l-.134.112c-4.227,3.436-7.17,5.434-8.079,5.484a2.033,2.033,0,0,1-1.652-.582,2.08,2.08,0,0,1-.492-1.678c.277-2.383,3.937-7.273,8.061-9.772,2.245-1.364,4.245-1.769,5.777-1.177,1.218.463.805,1.971.571,2.588.055.057,1.316-.082,1.531.348.1.18-.009.449-.328.8-2.38,2.627-4.345,6.714-4.277,7.788l.1.258c.847.71,6.654-4.85,8.853-7.429,2.5-2.931,3.466-3.164,3.824-3.041.7.251,1.053.61,1.053,1.1.006.361-.793,1.858-2.368,4.451l-.173.292c-.02.036-.551.963-.422,1.056.041.035.108.008.3-.216,1.655-1.905,5.716-5.86,6.709-6.058a1.346,1.346,0,0,1,1.112.258,1.294,1.294,0,0,1,.4,1.09,41.571,41.571,0,0,1-2.585,5.448l-.2.377c-.075.142-.578,1.189-.373,1.324.072.05.218.013.706-.6.572-.722,7.488-8.738,8.8-8.233.894.348,1.174.907.873,1.72a34.021,34.021,0,0,1-1.9,3.293c-1.039,1.674-2.207,3.579-2.835,4.9-.846,1.747-1.094,3.238-.638,3.807a.931.931,0,0,0,1.015.221,6.269,6.269,0,0,0,2.467-1.83c.164-.177.292-.217.354-.2m9.484-10.144a1.586,1.586,0,0,0-1.529-.241c-.643.18-1.988.534-3.686,3.282-1.383,2.212-1.85,4.136-1.255,5.146a1.035,1.035,0,0,0,.906.541h.069c2.125-.1,5.452-4.389,5.845-6.943a1.87,1.87,0,0,0-.35-1.784m35.867.626a.841.841,0,0,1-.758.546,2.371,2.371,0,0,1-1.788-.878c-.134-.164-.505-.164-.782-.132-1.845.189-6.538,2.289-9.267,7.576-.519,1-1.088,1.626-1.613,1.762a.726.726,0,0,1-.6-.1l-.107-.074c-.762-.522-1.05-.72-.579-1.537,2.364-4.2,3.485-7,3.082-7.7a.33.33,0,0,0-.307-.172c-.583,0-1.942,1.493-3.661,3.387-2.582,2.847-5.8,6.388-7.774,6.345a1.3,1.3,0,0,1-1.008-.493c-.923-1.107,1.362-4.71,2.6-6.638.653-1.028.774-1.238.7-1.3l-.2.069A28.947,28.947,0,0,0,515,127.425c-2.438,2.525-5.783,5.981-7.789,5.919a1.328,1.328,0,0,1-1-.47c-.967-1.123.641-3.612,2.2-6.009l.9-1.4.015-.171-.172.017a24.59,24.59,0,0,1-4.423,2.388l-.614.282a12.831,12.831,0,0,1-3.758,4.608c-1.732,1.152-3.542,1.221-4.837.175a3.656,3.656,0,0,1-.875-2.556,6.069,6.069,0,0,1,.459-2.072c1.165-2.973,4.746-6.284,7.452-5.934a2.65,2.65,0,0,1,2.168,1.387,4.347,4.347,0,0,1-.073,3.047l-.013.022.036.105.175.012a17.751,17.751,0,0,0,5.1-3l.436-.677c.25-.453.509-.918.92-1.007a1.2,1.2,0,0,1,.953.3c1.2.85-.76,3.739-2.339,6.056a22.044,22.044,0,0,0-1.453,2.321c-.232.509-.276.829-.128.948.192.16.667-.031,1.446-.6,3.621-2.609,8.488-8.23,8.7-8.466a1.319,1.319,0,0,1,1.211-.427,1.408,1.408,0,0,1,1.037,1.059c.089.266-.363.988-.992,1.988l-.543.859c-2.054,3.333-2.909,5.048-2.785,5.552a.348.348,0,0,0,.254.278c.7.183,2.625-1.866,4.857-4.235,2.588-2.744,5.526-5.863,6.691-5.51,1.454.427.706,3.136.3,4.589-.2.728-.263.979-.174,1.038l.035.009.147-.085c3.823-3.838,7.074-4.8,8.867-4.8a2.379,2.379,0,0,1,1.31.285c.766.56.77,1.02.706,1.242M456.4,131.062c.03.04-.01.177-.241.43-.022.029-2.207,2.3-4.49,2.534a2.8,2.8,0,0,1-2.56-.718,2.053,2.053,0,0,1-.066-2.053c1.363-3.55,11.065-15.3,12.89-17.125,1.671-1.651,2.918-2.5,3.616-2.466a.557.557,0,0,1,.417.21c.158.2-.286.713-.959,1.476l-1.582,1.9-10.544,14.079c-.564.729-1.769,2.5-.814,3.248.839.657,2.2-.271,3.776-1.345.25-.168.5-.233.557-.173" transform="translate(-412.82 -89.77)" fill="#fff"/>
  </g>
</svg>
