<svg xmlns="http://www.w3.org/2000/svg" xmlns:xlink="http://www.w3.org/1999/xlink" width="219.366" height="290.402" viewBox="0 0 219.366 290.402">
  <defs>
    <filter id="Union_2" x="0" y="0" width="219.366" height="290.402" filterUnits="userSpaceOnUse">
      <feOffset input="SourceAlpha"/>
      <feGaussianBlur stdDeviation="5" result="blur"/>
      <feFlood flood-color="#fff" flood-opacity="0.51"/>
      <feComposite operator="in" in2="blur"/>
      <feComposite in="SourceGraphic"/>
    </filter>
  </defs>
  <g transform="matrix(1, 0, 0, 1, 0, 0)" filter="url(#Union_2)">
    <path id="Union_2-2" data-name="Union 2" d="M88.268,259.255c-.622-.344-1.266-.7-1.816-.974a1.13,1.13,0,0,1-.524-1.486,85.515,85.515,0,0,1,4.421-8.014c.27-.453.806-1.26,1.485-2.282,1.619-2.438,5.881-8.855,6-10.456a3.337,3.337,0,0,0-.863-.074c-4.258,0-9.587,4.218-12.983,8.4l0,.008C78.7,250.9,70.333,258.685,60.5,258.685c-4.813,0-7.574-2.359-7.574-6.473,0-.008,0-.016,0-.024-4.918,4.269-9.709,6.426-14.311,6.426a9.912,9.912,0,0,1-5.2-1.162,5.455,5.455,0,0,1-2.584-4.955c0-5.533,4.717-14.412,7.788-19.946H34.182a1.135,1.135,0,0,1-1.137-1.132v-2.136a1.135,1.135,0,0,1,1.137-1.132h6.929c1.553-2.621,3.19-5.12,4.915-7.756l.506-.773a1.141,1.141,0,0,1,1.566-.336l1.788,1.139a1.129,1.129,0,0,1,.329,1.588c-1.326,1.955-2.56,3.953-3.753,5.884l-.157.254h8.832a1.135,1.135,0,0,1,1.137,1.132v2.136a1.135,1.135,0,0,1-1.137,1.132h-11.5c-2.677,4.7-8.465,14.967-8.465,19.8,0,1.017.258,1.93,3.369,1.93,3.086,0,9.563-1.646,18.273-12.67.007-.009.016-.015.023-.024a97.291,97.291,0,0,1,6.915-9.663,1.141,1.141,0,0,1,1.593-.19l1.645,1.282a1.128,1.128,0,0,1,.189,1.6c-6.343,7.932-9.837,14.181-9.837,17.6,0,1.049.244,2.072,3.154,2.072,3.723,0,11.281-1.647,20.065-12.674a1.13,1.13,0,0,1,.212-.2c3.924-4.946,10.355-9.844,16.126-9.844,3.354,0,5.357,1.648,5.357,4.408,0,.1,0,.2-.008.306,3.12-2.324,7.248-4.714,11.03-4.714,3.033,0,5.071,1.771,5.071,4.408q0,.189-.011.374c3.362-2.53,7.4-4.782,11.1-4.782,2.99,0,5,1.714,5,4.266,0,2.771-2.443,6.389-5.03,10.22-1.967,2.913-4.2,6.215-4.2,7.868,0,.187,0,.363.722.363,3.3,0,10.2-6.9,14.332-12.114,3.6-5.731,10.99-10.175,16.92-10.175,4.21,0,6.931,2.289,6.931,5.832,0,3.478-1.78,6.782-5.014,9.3a16.886,16.886,0,0,1-10,3.579,10.518,10.518,0,0,1-6.579-1.99q-.009.146-.008.288c0,2.467,1.856,5.348,7.087,5.348,9.64,0,17.839-9.742,20.122-12.728a1.14,1.14,0,0,1,1.611-.2l1.717,1.353a1.128,1.128,0,0,1,.179,1.6c-3.5,4.324-12.821,14.379-23.7,14.379-5.071,0-10.194-2.668-11.239-7.789-3.858,3.956-8.481,7.718-12.433,7.718-2.943,0-5-1.93-5-4.693,0-3.13,2.745-7.19,5.4-11.116,1.749-2.587,3.727-5.512,3.822-6.873a5.15,5.15,0,0,0-.719-.035c-8.183,0-17.8,12.654-21.174,18.782l-2.14,3.978a1.14,1.14,0,0,1-1.5.486l-1.931-.926a1.13,1.13,0,0,1-.529-1.516c1.367-2.794,2.827-5.482,4.338-7.991.279-.469.844-1.308,1.559-2.372,1.616-2.4,5.865-8.715,6-10.357a3.015,3.015,0,0,0-.862-.083c-7.268,0-16.3,10.238-20.392,17.509l-2.927,5.33a1.14,1.14,0,0,1-1.55.447Zm61.206-20.1c-2.964,1.746-4.805,3.719-4.805,5.149,0,1.512,3.04,2,4.513,2,5.666,0,10.52-4.663,10.52-8.481,0-.354,0-1.431-2.439-1.431C155.468,236.4,152.192,237.558,149.474,239.158ZM67.016,227.217a3.7,3.7,0,0,1,3.426-3.767,2.516,2.516,0,0,1,2.424,2.7,3.667,3.667,0,0,1-3.354,3.767A2.576,2.576,0,0,1,67.016,227.217ZM0,215.468c0-6.737,7.428-12.479,13.66-16.11a82.12,82.12,0,0,1,19.369-8.08c.726-1.515,1.462-3.053,2.191-4.605-3.68,2.527-8.268,4.576-12.769,4.576-4.992,0-8.218-2.82-8.218-7.185,0-4.462,3.055-9.41,8.383-13.575,4.846-3.789,10.566-6.143,14.926-6.143a8.479,8.479,0,0,1,6.526,2.617l.789-1.914a1.14,1.14,0,0,1,1.468-.624l2,.783a1.131,1.131,0,0,1,.632,1.494c-3.507,8.285-6.888,15.849-10.3,23.04C50,186.24,59.335,180.727,64.567,174.4a132.059,132.059,0,0,1,11.254-22.152c7.3-11.253,14.493-16.958,21.365-16.958a6.75,6.75,0,0,1,7.145,7.114c0,5.8-4.194,11.172-12.465,15.96a78.365,78.365,0,0,1-18.7,7.44c-1.935,4.06-6.811,14.437-6.811,18.471,0,2.133.861,2.571,2.153,2.571,4.891,0,11.726-5.981,16-10.888a27.845,27.845,0,0,1,5.32-5.381c4.851-3.8,10.547-6.162,14.864-6.162,3.476,0,6.068,1.322,7.341,3.639.774-1.163,1.578-2.3,2.406-3.4a1.141,1.141,0,0,1,1.567-.245l1.717,1.211a1.129,1.129,0,0,1,.262,1.591c-8.491,11.6-9.151,17.085-9.151,18.489,0,1.217.361,1.217.651,1.217,3.781,0,11.237-7.81,15.048-12.733a1.132,1.132,0,0,1,.221-.21c3.924-4.946,10.356-9.844,16.127-9.844,3.355,0,5.357,1.648,5.357,4.408q0,.151-.008.306c3.12-2.324,7.247-4.714,11.029-4.714,3.033,0,5.071,1.771,5.071,4.408,0,.126,0,.25-.011.374,3.362-2.53,7.4-4.782,11.1-4.782,2.99,0,5,1.714,5,4.266,0,2.771-2.443,6.389-5.03,10.22-1.967,2.913-4.2,6.215-4.2,7.868,0,.187,0,.363.723.363,3.421,0,10.691-7.4,14.762-12.661a1.14,1.14,0,0,1,1.625-.182l1.645,1.353a1.129,1.129,0,0,1,.151,1.6c-3.87,4.64-11.924,14.295-18.254,14.295-2.944,0-5-1.93-5-4.693,0-3.129,2.745-7.19,5.4-11.116,1.749-2.587,3.727-5.512,3.822-6.873a5.142,5.142,0,0,0-.719-.035c-8.183,0-17.8,12.654-21.174,18.782l-2.14,3.978a1.14,1.14,0,0,1-1.5.486l-1.931-.926a1.13,1.13,0,0,1-.529-1.516c1.367-2.795,2.827-5.483,4.339-7.991.279-.469.844-1.309,1.56-2.373,1.615-2.4,5.864-8.714,6-10.356a3.015,3.015,0,0,0-.862-.083c-7.268,0-16.3,10.238-20.392,17.509l-2.927,5.33a1.139,1.139,0,0,1-1.55.447c-.628-.347-1.268-.7-1.816-.974a1.13,1.13,0,0,1-.525-1.486,85.552,85.552,0,0,1,4.421-8.014c.269-.453.805-1.26,1.485-2.282,1.619-2.438,5.881-8.855,6-10.456a3.338,3.338,0,0,0-.863-.074c-4.255,0-9.579,4.211-12.975,8.391l0,0c-2.631,3.36-11.745,14.322-18.562,14.322-2.993,0-4.928-2.177-4.928-5.547q0-.23.01-.459c-3.9,3.107-9.4,6.007-14.822,6.007-4.6,0-7.691-2.391-8.155-6.175-4.113,3.4-8.858,6.1-13.086,6.1-4.01,0-6.5-2.617-6.5-6.829a13.535,13.535,0,0,1,.073-1.391,55.3,55.3,0,0,1-8.723,5.58A81.485,81.485,0,0,1,36.129,195a71.79,71.79,0,0,1-11.32,16.5c-4.374,4.765-10.989,10.445-17.665,10.445C2.871,221.941,0,219.34,0,215.468Zm4.42,0c0,1.422.917,2.143,2.725,2.143,7.684,0,16.783-10.7,22.89-20.824C19.842,200.426,4.42,207.854,4.42,215.468Zm88.291-41.58a25.64,25.64,0,0,0-3.295,2.984c-.48.639-1.022,1.312-1.611,2a9.458,9.458,0,0,0-1.926,5.187c0,1.895,1.278,2.855,3.8,2.855,3.277,0,8-1.994,12.028-5.079,4.3-3.289,6.86-7.116,6.86-10.238,0-1.847-1.278-2.784-3.8-2.784C101.469,168.818,96.737,170.809,92.711,173.889Zm-67.252-.072c-4.262,3.269-6.807,7.073-6.807,10.176,0,1.3.659,2.855,3.8,2.855,3.267,0,7.988-2,12.027-5.105,4.3-3.3,6.861-7.117,6.861-10.212,0-1.848-1.278-2.784-3.8-2.784C34.217,168.747,29.475,170.737,25.459,173.817ZM84.124,148.5a82.482,82.482,0,0,0-8.11,11.942c9.193-2.879,23.969-9.846,23.969-18.033a2.545,2.545,0,0,0-2.868-2.713C93.421,139.693,88.929,142.738,84.124,148.5ZM14.392,137.851c0-6.922,7.165-12.655,13.175-16.246a75.741,75.741,0,0,1,19.311-8.028l.934-1.774a10.729,10.729,0,0,1-5.535,1.616c-3.4,0-5.357-1.581-5.357-4.337,0-3.025,2.7-7.15,5.3-11.14,1.7-2.6,3.616-5.534,3.832-6.982a4.294,4.294,0,0,0-.774-.043c-3.858,0-6.952,4.07-9.438,7.34-.257.338-.506.666-.748.977a1.14,1.14,0,0,1-1.686.128l-1.573-1.5a1.13,1.13,0,0,1-.1-1.53c.356-.439.715-.894,1.078-1.354,3.131-3.969,6.68-8.467,12.394-8.467,4.369,0,5.285,2.242,5.285,4.123,0,2.771-2.434,6.508-5.012,10.465-1.9,2.909-4.038,6.2-4.139,7.86a5.327,5.327,0,0,0,.933.055c5.648,0,11.328-9.63,13.466-13.256.314-.537.639-1.083.967-1.634a47.647,47.647,0,0,0,4.022-7.791,1.138,1.138,0,0,1,1.5-.663l1.931.783A1.13,1.13,0,0,1,64.8,87.91a167.48,167.48,0,0,1-9.93,20.162c-.711,1.294-1.437,2.615-2.153,3.936C68.585,107.132,75.917,100.18,78.93,96.35a1.136,1.136,0,0,1,.207-.2c3.439-5.531,9.9-9.778,16.277-9.778,5.814,0,9.72,3.689,9.72,9.179a13.638,13.638,0,0,1-1.1,5.27c2.572-.1,4.985-1.476,7.183-4.076a94.13,94.13,0,0,1,5.718-9.451,1.14,1.14,0,0,1,1.579-.3l1.788,1.21a1.13,1.13,0,0,1,.286,1.594,80.84,80.84,0,0,0-5.423,8.89l-.023.043a1.112,1.112,0,0,1-.108.211c-2,3.873-3.1,6.987-3.1,8.784,0,.842.187,1.217,1.294,1.217,1.735,0,4.906-1.293,10.161-7.455a115.657,115.657,0,0,0,8.382-11.533l.1-.152,1.852-2.908a1.14,1.14,0,0,1,1.573-.347l1.788,1.14a1.129,1.129,0,0,1,.338,1.575c-2.567,3.9-8.539,13.522-8.539,18.677,0,.847.125,1.021.151,1.048a.585.585,0,0,0,.214.027c2.591,0,8.031-4.735,14.552-12.668l0,0c.711-.9,1.3-1.7,1.846-2.512-1.684-.419-3.736-1.294-3.736-3.765a5.589,5.589,0,0,1,2.187-4.093,6.9,6.9,0,0,1,4.243-1.74,4.169,4.169,0,0,1,4.284,4.337,5.354,5.354,0,0,1-.2,1.405,80.506,80.506,0,0,0,13.851-1.874,1.133,1.133,0,0,1,1.159,1.761c-.283.4-.627.88-1.018,1.425-2.994,4.175-10,13.952-10,17.292,0,.13,0,.434.794.434,3.665,0,12.5-8.886,15.245-12.638a1.14,1.14,0,0,1,1.6-.239l1.717,1.282a1.129,1.129,0,0,1,.214,1.6c-2.924,3.734-12.663,14.393-18.848,14.393a4.886,4.886,0,0,1-5.143-4.835c0-3.555,3.841-9.749,7.347-14.809a56.349,56.349,0,0,1-7.711.631c-.19,0-.416,0-1.214-.037a35.9,35.9,0,0,1-3.172,4.716l0,.006c-2.592,3.361-11.556,14.329-18.067,14.329-2.863,0-4.713-2.15-4.713-5.476a10.941,10.941,0,0,1,.057-1.1c-3.053,3.047-7.394,6.507-11.364,6.507-3.437,0-5.571-2.126-5.571-5.547a13.607,13.607,0,0,1,.5-3.375,12.373,12.373,0,0,1-4.366.8,11.851,11.851,0,0,1-2.163-.23c-3.884,5.093-9.81,8.348-15.288,8.348-5.6,0-9.413-3.417-9.637-8.555a56.983,56.983,0,0,1-9.314,6,82.274,82.274,0,0,1-17.474,6.6c-2.945,5.407-15.423,26.79-28.514,26.79C17.242,144.182,14.392,141.579,14.392,137.851Zm15.463-12.037c-7.224,4.225-11.043,8.388-11.043,12.037,0,1.93,1.836,1.93,2.439,1.93,7.616,0,16.978-11.379,22.383-20.408A94.387,94.387,0,0,0,29.854,125.814Zm51.178-21.93c0,3.311,1.882,5.134,5.3,5.134,4.34,0,8.3-2.757,10.764-5.494-3.975-2.067-7.911-6.48-8.3-10.722C84.742,95.274,81.032,99.692,81.032,103.884Zm12.087-11.75c0,2.74,3.643,6.3,6.5,7.733a9.325,9.325,0,0,0,1.095-4.03c0-3.359-1.783-5.134-5.157-5.134C93.119,90.7,93.119,91.743,93.119,92.134Zm53.513-2.412a10.465,10.465,0,0,0,1.211.224,3.541,3.541,0,0,0,.358-1.3A2.636,2.636,0,0,0,146.632,89.723ZM124.609,55.679c0-4.25,5.06-5.453,8.145-6.069a16.544,16.544,0,0,0-5.078-10.637,60.666,60.666,0,0,1-4.534,6.573,1.141,1.141,0,0,1-1.607.2l-1.716-1.353a1.129,1.129,0,0,1-.2-1.577,55.36,55.36,0,0,0,6.1-9.493,1.14,1.14,0,0,1,1.706-.406c6.314,4.736,9.672,10.139,9.793,15.711a16.165,16.165,0,0,0,8.5-5.81,1.14,1.14,0,0,1,1.609-.2l1.717,1.353a1.128,1.128,0,0,1,.184,1.593,21.44,21.44,0,0,1-12.431,7.708c-.937,4.1-3.8,6.605-7.626,6.605A4.361,4.361,0,0,1,124.609,55.679Zm4.534-.207h.036a3.439,3.439,0,0,0,2.421-1.107A5.156,5.156,0,0,0,129.143,55.472ZM55.739,53.4c0-5.886,5.788-13.932,10.83-20.285a1.141,1.141,0,0,1,1.593-.19l1.645,1.282A1.129,1.129,0,0,1,70,35.8c-6.343,7.932-9.837,14.181-9.837,17.6,0,1.049.243,2.072,3.154,2.072,3.723,0,11.28-1.647,20.064-12.674a.981.981,0,0,1,.073-.083c1.475-3.255,3.23-6.5,4.606-8.976H83.623a1.135,1.135,0,0,1-1.137-1.132V30.471a1.135,1.135,0,0,1,1.137-1.132h6.929c1.556-2.626,3.2-5.13,4.924-7.771l.5-.758a1.141,1.141,0,0,1,1.566-.336l1.788,1.139a1.13,1.13,0,0,1,.329,1.588c-1.328,1.958-2.564,3.958-3.759,5.893l-.151.245h8.833a1.135,1.135,0,0,1,1.137,1.132v2.136a1.135,1.135,0,0,1-1.137,1.132h-11.5c-2.678,4.7-8.465,14.967-8.465,19.8,0,1.017.257,1.93,3.368,1.93,3.086,0,9.563-1.646,18.273-12.67a1.141,1.141,0,0,1,1.576-.206l1.717,1.282a1.13,1.13,0,0,1,.211,1.607C102.241,54.985,94.939,59.8,88.057,59.8a9.916,9.916,0,0,1-5.2-1.162,5.456,5.456,0,0,1-2.584-4.955,11.9,11.9,0,0,1,.078-1.325c-5.665,4.988-11.383,7.513-17.034,7.513C58.5,59.873,55.739,57.514,55.739,53.4ZM69.828,28.406a3.7,3.7,0,0,1,3.426-3.767,2.516,2.516,0,0,1,2.425,2.7c0,1.782-1.378,3.767-3.354,3.767A2.576,2.576,0,0,1,69.828,28.406Zm2.274,0c0,.181.084.434.222.434.616,0,1.08-.912,1.08-1.5a.65.65,0,0,0-.124-.433h-.026C72.618,26.9,72.1,27.812,72.1,28.406Zm38.688-12.729-1.645-1.353A1.129,1.129,0,0,1,109,12.716,36.677,36.677,0,0,0,115.938.79a1.138,1.138,0,0,1,1.455-.729l2.074.712a1.131,1.131,0,0,1,.708,1.428,43.375,43.375,0,0,1-7.791,13.332,1.14,1.14,0,0,1-1.594.143Z" transform="translate(15.5 15.51)" fill="#fff" stroke="rgba(0,0,0,0)" stroke-miterlimit="10" stroke-width="1"/>
  </g>
</svg>
